<mxfile host="app.diagrams.net" modified="2021-01-25T11:58:28.350Z" agent="5.0 (Windows NT 10.0; Win64; x64) AppleWebKit/537.36 (KHTML, like Gecko) Chrome/87.0.4280.141 Safari/537.36" etag="xqSfw1OhBB_iA6tqtHRF" version="13.8.8" type="github">
  <diagram id="kgpKYQtTHZ0yAKxKKP6v" name="Page-1">
    <mxGraphModel dx="1210" dy="647" grid="1" gridSize="10" guides="1" tooltips="1" connect="1" arrows="1" fold="1" page="1" pageScale="1" pageWidth="850" pageHeight="1100" math="0" shadow="0">
      <root>
        <mxCell id="0" />
        <mxCell id="1" parent="0" />
        <mxCell id="yRdWivfKs0KMSXjoEMQT-1" value="" style="ellipse;html=1;shape=startState;fillColor=#000000;strokeColor=#ff0000;" vertex="1" parent="1">
          <mxGeometry x="155" y="270" width="30" height="30" as="geometry" />
        </mxCell>
        <mxCell id="yRdWivfKs0KMSXjoEMQT-2" value="" style="edgeStyle=orthogonalEdgeStyle;html=1;verticalAlign=bottom;endArrow=open;endSize=8;strokeColor=#ff0000;" edge="1" source="yRdWivfKs0KMSXjoEMQT-1" parent="1">
          <mxGeometry relative="1" as="geometry">
            <mxPoint x="170" y="360" as="targetPoint" />
          </mxGeometry>
        </mxCell>
        <mxCell id="yRdWivfKs0KMSXjoEMQT-3" value="生成额度恢复流水" style="rounded=1;whiteSpace=wrap;html=1;arcSize=40;fontColor=#000000;fillColor=#ffffc0;strokeColor=#ff0000;" vertex="1" parent="1">
          <mxGeometry x="110" y="360" width="120" height="40" as="geometry" />
        </mxCell>
        <mxCell id="yRdWivfKs0KMSXjoEMQT-4" value="" style="edgeStyle=orthogonalEdgeStyle;html=1;verticalAlign=bottom;endArrow=open;endSize=8;strokeColor=#ff0000;entryX=0.5;entryY=0;entryDx=0;entryDy=0;" edge="1" source="yRdWivfKs0KMSXjoEMQT-3" parent="1" target="yRdWivfKs0KMSXjoEMQT-17">
          <mxGeometry relative="1" as="geometry">
            <mxPoint x="170" y="460" as="targetPoint" />
          </mxGeometry>
        </mxCell>
        <mxCell id="yRdWivfKs0KMSXjoEMQT-17" value="用信恢复额度校验" style="rounded=1;whiteSpace=wrap;html=1;arcSize=40;fontColor=#000000;fillColor=#ffffc0;strokeColor=#ff0000;" vertex="1" parent="1">
          <mxGeometry x="110" y="450" width="120" height="40" as="geometry" />
        </mxCell>
        <mxCell id="yRdWivfKs0KMSXjoEMQT-19" value="校验通过" style="rhombus;whiteSpace=wrap;html=1;fillColor=#ffffc0;strokeColor=#ff0000;" vertex="1" parent="1">
          <mxGeometry x="130" y="540" width="80" height="40" as="geometry" />
        </mxCell>
        <mxCell id="yRdWivfKs0KMSXjoEMQT-20" value="no" style="edgeStyle=orthogonalEdgeStyle;html=1;align=left;verticalAlign=bottom;endArrow=open;endSize=8;strokeColor=#ff0000;" edge="1" source="yRdWivfKs0KMSXjoEMQT-19" parent="1">
          <mxGeometry x="-1" relative="1" as="geometry">
            <mxPoint x="270" y="560" as="targetPoint" />
          </mxGeometry>
        </mxCell>
        <mxCell id="yRdWivfKs0KMSXjoEMQT-21" value="yes" style="edgeStyle=orthogonalEdgeStyle;html=1;align=left;verticalAlign=top;endArrow=open;endSize=8;strokeColor=#ff0000;entryX=0.5;entryY=0;entryDx=0;entryDy=0;" edge="1" source="yRdWivfKs0KMSXjoEMQT-19" parent="1" target="yRdWivfKs0KMSXjoEMQT-23">
          <mxGeometry x="-1" relative="1" as="geometry">
            <mxPoint x="170" y="715" as="targetPoint" />
            <Array as="points" />
          </mxGeometry>
        </mxCell>
        <mxCell id="yRdWivfKs0KMSXjoEMQT-22" value="" style="edgeStyle=orthogonalEdgeStyle;html=1;verticalAlign=bottom;endArrow=open;endSize=8;strokeColor=#ff0000;exitX=0.5;exitY=1;exitDx=0;exitDy=0;" edge="1" parent="1" source="yRdWivfKs0KMSXjoEMQT-17" target="yRdWivfKs0KMSXjoEMQT-19">
          <mxGeometry relative="1" as="geometry">
            <mxPoint x="180" y="460" as="targetPoint" />
            <mxPoint x="180" y="410" as="sourcePoint" />
            <Array as="points">
              <mxPoint x="170" y="540" />
              <mxPoint x="170" y="540" />
            </Array>
          </mxGeometry>
        </mxCell>
        <mxCell id="yRdWivfKs0KMSXjoEMQT-38" value="" style="edgeStyle=orthogonalEdgeStyle;rounded=0;orthogonalLoop=1;jettySize=auto;html=1;fillColor=#f8cecc;strokeColor=#FF0000;exitX=1;exitY=0.5;exitDx=0;exitDy=0;" edge="1" parent="1" source="yRdWivfKs0KMSXjoEMQT-23" target="yRdWivfKs0KMSXjoEMQT-37">
          <mxGeometry relative="1" as="geometry">
            <mxPoint x="230" y="735" as="sourcePoint" />
          </mxGeometry>
        </mxCell>
        <mxCell id="yRdWivfKs0KMSXjoEMQT-23" value="恢复用信额度" style="rounded=1;whiteSpace=wrap;html=1;arcSize=40;fontColor=#000000;fillColor=#ffffc0;strokeColor=#ff0000;" vertex="1" parent="1">
          <mxGeometry x="110" y="650" width="120" height="40" as="geometry" />
        </mxCell>
        <mxCell id="yRdWivfKs0KMSXjoEMQT-24" value="记录日终批量异常登记表" style="rounded=1;whiteSpace=wrap;html=1;arcSize=40;fontColor=#000000;fillColor=#ffffc0;strokeColor=#ff0000;" vertex="1" parent="1">
          <mxGeometry x="270" y="540" width="120" height="40" as="geometry" />
        </mxCell>
        <mxCell id="yRdWivfKs0KMSXjoEMQT-37" value="" style="ellipse;html=1;shape=endState;fillColor=#000000;strokeColor=#ff0000;" vertex="1" parent="1">
          <mxGeometry x="340" y="655" width="30" height="30" as="geometry" />
        </mxCell>
        <mxCell id="yRdWivfKs0KMSXjoEMQT-41" value="" style="ellipse;html=1;shape=startState;fillColor=#000000;strokeColor=#ff0000;" vertex="1" parent="1">
          <mxGeometry x="135" y="780" width="30" height="30" as="geometry" />
        </mxCell>
        <mxCell id="yRdWivfKs0KMSXjoEMQT-42" value="" style="edgeStyle=orthogonalEdgeStyle;html=1;verticalAlign=bottom;endArrow=open;endSize=8;strokeColor=#ff0000;" edge="1" parent="1" source="yRdWivfKs0KMSXjoEMQT-41">
          <mxGeometry relative="1" as="geometry">
            <mxPoint x="150" y="870" as="targetPoint" />
          </mxGeometry>
        </mxCell>
        <mxCell id="yRdWivfKs0KMSXjoEMQT-43" value="查询借据还款流水" style="rounded=1;whiteSpace=wrap;html=1;arcSize=40;fontColor=#000000;fillColor=#ffffc0;strokeColor=#ff0000;" vertex="1" parent="1">
          <mxGeometry x="90" y="870" width="120" height="40" as="geometry" />
        </mxCell>
        <mxCell id="yRdWivfKs0KMSXjoEMQT-44" value="" style="edgeStyle=orthogonalEdgeStyle;html=1;verticalAlign=bottom;endArrow=open;endSize=8;strokeColor=#ff0000;entryX=0.5;entryY=0;entryDx=0;entryDy=0;" edge="1" parent="1" source="yRdWivfKs0KMSXjoEMQT-43" target="yRdWivfKs0KMSXjoEMQT-45">
          <mxGeometry relative="1" as="geometry">
            <mxPoint x="150" y="970" as="targetPoint" />
          </mxGeometry>
        </mxCell>
        <mxCell id="yRdWivfKs0KMSXjoEMQT-45" value="生成额度恢复流水" style="rounded=1;whiteSpace=wrap;html=1;arcSize=40;fontColor=#000000;fillColor=#ffffc0;strokeColor=#ff0000;" vertex="1" parent="1">
          <mxGeometry x="90" y="960" width="120" height="40" as="geometry" />
        </mxCell>
        <mxCell id="yRdWivfKs0KMSXjoEMQT-49" value="" style="edgeStyle=orthogonalEdgeStyle;html=1;verticalAlign=bottom;endArrow=open;endSize=8;strokeColor=#ff0000;exitX=0.5;exitY=1;exitDx=0;exitDy=0;entryX=0.5;entryY=0;entryDx=0;entryDy=0;" edge="1" parent="1" source="yRdWivfKs0KMSXjoEMQT-45" target="yRdWivfKs0KMSXjoEMQT-53">
          <mxGeometry relative="1" as="geometry">
            <mxPoint x="150" y="1050" as="targetPoint" />
            <mxPoint x="160" y="920" as="sourcePoint" />
            <Array as="points" />
          </mxGeometry>
        </mxCell>
        <mxCell id="yRdWivfKs0KMSXjoEMQT-53" value="" style="ellipse;html=1;shape=endState;fillColor=#000000;strokeColor=#ff0000;" vertex="1" parent="1">
          <mxGeometry x="135" y="1050" width="30" height="30" as="geometry" />
        </mxCell>
        <mxCell id="yRdWivfKs0KMSXjoEMQT-54" value="" style="ellipse;html=1;shape=startState;fillColor=#000000;strokeColor=#ff0000;" vertex="1" parent="1">
          <mxGeometry x="465" y="770" width="30" height="30" as="geometry" />
        </mxCell>
        <mxCell id="yRdWivfKs0KMSXjoEMQT-55" value="" style="edgeStyle=orthogonalEdgeStyle;html=1;verticalAlign=bottom;endArrow=open;endSize=8;strokeColor=#ff0000;" edge="1" parent="1" source="yRdWivfKs0KMSXjoEMQT-54">
          <mxGeometry relative="1" as="geometry">
            <mxPoint x="480" y="860" as="targetPoint" />
          </mxGeometry>
        </mxCell>
        <mxCell id="yRdWivfKs0KMSXjoEMQT-56" value="查询借据还款流水" style="rounded=1;whiteSpace=wrap;html=1;arcSize=40;fontColor=#000000;fillColor=#ffffc0;strokeColor=#ff0000;" vertex="1" parent="1">
          <mxGeometry x="420" y="860" width="120" height="40" as="geometry" />
        </mxCell>
        <mxCell id="yRdWivfKs0KMSXjoEMQT-57" value="" style="edgeStyle=orthogonalEdgeStyle;html=1;verticalAlign=bottom;endArrow=open;endSize=8;strokeColor=#ff0000;entryX=0.5;entryY=0;entryDx=0;entryDy=0;" edge="1" parent="1" source="yRdWivfKs0KMSXjoEMQT-56" target="yRdWivfKs0KMSXjoEMQT-58">
          <mxGeometry relative="1" as="geometry">
            <mxPoint x="480" y="960" as="targetPoint" />
          </mxGeometry>
        </mxCell>
        <mxCell id="yRdWivfKs0KMSXjoEMQT-58" value="生成额度恢复流水" style="rounded=1;whiteSpace=wrap;html=1;arcSize=40;fontColor=#000000;fillColor=#ffffc0;strokeColor=#ff0000;" vertex="1" parent="1">
          <mxGeometry x="420" y="950" width="120" height="40" as="geometry" />
        </mxCell>
        <mxCell id="yRdWivfKs0KMSXjoEMQT-59" value="校验通过" style="rhombus;whiteSpace=wrap;html=1;fillColor=#ffffc0;strokeColor=#ff0000;" vertex="1" parent="1">
          <mxGeometry x="440" y="1040" width="80" height="40" as="geometry" />
        </mxCell>
        <mxCell id="yRdWivfKs0KMSXjoEMQT-60" value="no" style="edgeStyle=orthogonalEdgeStyle;html=1;align=left;verticalAlign=bottom;endArrow=open;endSize=8;strokeColor=#ff0000;" edge="1" parent="1" source="yRdWivfKs0KMSXjoEMQT-59">
          <mxGeometry x="-1" relative="1" as="geometry">
            <mxPoint x="580" y="1060" as="targetPoint" />
          </mxGeometry>
        </mxCell>
        <mxCell id="yRdWivfKs0KMSXjoEMQT-61" value="yes" style="edgeStyle=orthogonalEdgeStyle;html=1;align=left;verticalAlign=top;endArrow=open;endSize=8;strokeColor=#ff0000;entryX=0.5;entryY=0;entryDx=0;entryDy=0;" edge="1" parent="1" source="yRdWivfKs0KMSXjoEMQT-59" target="yRdWivfKs0KMSXjoEMQT-64">
          <mxGeometry x="-1" relative="1" as="geometry">
            <mxPoint x="480" y="1215" as="targetPoint" />
            <Array as="points" />
          </mxGeometry>
        </mxCell>
        <mxCell id="yRdWivfKs0KMSXjoEMQT-62" value="" style="edgeStyle=orthogonalEdgeStyle;html=1;verticalAlign=bottom;endArrow=open;endSize=8;strokeColor=#ff0000;exitX=0.5;exitY=1;exitDx=0;exitDy=0;" edge="1" parent="1" source="yRdWivfKs0KMSXjoEMQT-58" target="yRdWivfKs0KMSXjoEMQT-59">
          <mxGeometry relative="1" as="geometry">
            <mxPoint x="490" y="960" as="targetPoint" />
            <mxPoint x="490" y="910" as="sourcePoint" />
            <Array as="points">
              <mxPoint x="480" y="1040" />
              <mxPoint x="480" y="1040" />
            </Array>
          </mxGeometry>
        </mxCell>
        <mxCell id="yRdWivfKs0KMSXjoEMQT-63" value="" style="edgeStyle=orthogonalEdgeStyle;rounded=0;orthogonalLoop=1;jettySize=auto;html=1;fillColor=#f8cecc;strokeColor=#FF0000;exitX=1;exitY=0.5;exitDx=0;exitDy=0;" edge="1" parent="1" source="yRdWivfKs0KMSXjoEMQT-64" target="yRdWivfKs0KMSXjoEMQT-66">
          <mxGeometry relative="1" as="geometry">
            <mxPoint x="540" y="1235" as="sourcePoint" />
          </mxGeometry>
        </mxCell>
        <mxCell id="yRdWivfKs0KMSXjoEMQT-64" value="恢复用信额度" style="rounded=1;whiteSpace=wrap;html=1;arcSize=40;fontColor=#000000;fillColor=#ffffc0;strokeColor=#ff0000;" vertex="1" parent="1">
          <mxGeometry x="420" y="1150" width="120" height="40" as="geometry" />
        </mxCell>
        <mxCell id="yRdWivfKs0KMSXjoEMQT-65" value="记录日终批量异常登记表" style="rounded=1;whiteSpace=wrap;html=1;arcSize=40;fontColor=#000000;fillColor=#ffffc0;strokeColor=#ff0000;" vertex="1" parent="1">
          <mxGeometry x="580" y="1040" width="120" height="40" as="geometry" />
        </mxCell>
        <mxCell id="yRdWivfKs0KMSXjoEMQT-66" value="" style="ellipse;html=1;shape=endState;fillColor=#000000;strokeColor=#ff0000;" vertex="1" parent="1">
          <mxGeometry x="650" y="1155" width="30" height="30" as="geometry" />
        </mxCell>
        <mxCell id="yRdWivfKs0KMSXjoEMQT-67" value="定时调度系统" style="shape=umlLifeline;participant=umlControl;perimeter=lifelinePerimeter;whiteSpace=wrap;html=1;container=1;collapsible=0;recursiveResize=0;verticalAlign=top;spacingTop=36;outlineConnect=0;" vertex="1" parent="1">
          <mxGeometry x="80" y="1360" width="40" height="300" as="geometry" />
        </mxCell>
        <mxCell id="yRdWivfKs0KMSXjoEMQT-68" value="还款流水表（核算子系统）:Table" style="shape=umlLifeline;perimeter=lifelinePerimeter;whiteSpace=wrap;html=1;container=1;collapsible=0;recursiveResize=0;outlineConnect=0;size=80;" vertex="1" parent="1">
          <mxGeometry x="280" y="1320" width="150" height="460" as="geometry" />
        </mxCell>
        <mxCell id="yRdWivfKs0KMSXjoEMQT-69" value="" style="html=1;points=[];perimeter=orthogonalPerimeter;" vertex="1" parent="yRdWivfKs0KMSXjoEMQT-68">
          <mxGeometry x="70" y="100" width="10" height="160" as="geometry" />
        </mxCell>
        <mxCell id="yRdWivfKs0KMSXjoEMQT-70" value="select&lt;br&gt;查询当日还款流水数据（&lt;br&gt;过滤已存在于额度流水表中&lt;br&gt;的还款流水）" style="html=1;verticalAlign=bottom;startArrow=oval;endArrow=block;startSize=8;strokeColor=#FF0000;" edge="1" target="yRdWivfKs0KMSXjoEMQT-69" parent="1">
          <mxGeometry x="-0.0526" y="-22" relative="1" as="geometry">
            <mxPoint x="99.99666666666651" y="1447.9999999999998" as="sourcePoint" />
            <mxPoint x="285.33" y="1447.9999999999998" as="targetPoint" />
            <mxPoint as="offset" />
          </mxGeometry>
        </mxCell>
        <mxCell id="yRdWivfKs0KMSXjoEMQT-71" value="额度流水表（用信子系统）:Table" style="shape=umlLifeline;perimeter=lifelinePerimeter;whiteSpace=wrap;html=1;container=1;collapsible=0;recursiveResize=0;outlineConnect=0;size=80;" vertex="1" parent="1">
          <mxGeometry x="520" y="1320" width="150" height="460" as="geometry" />
        </mxCell>
        <mxCell id="yRdWivfKs0KMSXjoEMQT-72" value="" style="html=1;points=[];perimeter=orthogonalPerimeter;" vertex="1" parent="yRdWivfKs0KMSXjoEMQT-71">
          <mxGeometry x="70" y="100" width="10" height="160" as="geometry" />
        </mxCell>
        <mxCell id="yRdWivfKs0KMSXjoEMQT-73" style="edgeStyle=orthogonalEdgeStyle;rounded=0;orthogonalLoop=1;jettySize=auto;html=1;strokeColor=#FF0000;" edge="1" parent="1" source="yRdWivfKs0KMSXjoEMQT-69" target="yRdWivfKs0KMSXjoEMQT-72">
          <mxGeometry relative="1" as="geometry">
            <Array as="points">
              <mxPoint x="350" y="1462" />
              <mxPoint x="350" y="1462" />
            </Array>
          </mxGeometry>
        </mxCell>
        <mxCell id="yRdWivfKs0KMSXjoEMQT-74" value="insert" style="edgeLabel;html=1;align=center;verticalAlign=middle;resizable=0;points=[];" vertex="1" connectable="0" parent="yRdWivfKs0KMSXjoEMQT-73">
          <mxGeometry x="-0.2323" relative="1" as="geometry">
            <mxPoint as="offset" />
          </mxGeometry>
        </mxCell>
      </root>
    </mxGraphModel>
  </diagram>
</mxfile>
